<svg version="1.1" id="Layer_1" xmlns="http://www.w3.org/2000/svg" xmlns:xlink="http://www.w3.org/1999/xlink" x="0px" y="0px"
	 width="100%" viewBox="0 0 1024 1024" enable-background="new 0 0 1024 1024" xml:space="preserve">
<path fill="#000000" opacity="1.000000" stroke="none" 
	d="
M349.820312,127.029938 
	C347.059784,120.370613 344.589233,114.010010 343.036591,107.345535 
	C342.203033,103.767769 342.199799,100.105865 345.657074,97.913872 
	C349.165314,95.689583 352.901276,96.061546 356.417023,98.415604 
	C359.238129,100.304497 361.403351,102.850006 363.469910,105.445267 
	C402.529419,154.498535 446.491241,198.753448 494.431946,239.090424 
	C519.416809,260.112488 545.162903,280.197632 570.815735,300.392334 
	C585.574829,312.011169 599.734497,324.340240 614.609924,337.414490 
	C613.201416,333.162354 611.974060,329.936249 611.078735,326.620483 
	C610.166931,323.243530 610.300781,319.849701 613.394287,317.540283 
	C616.656006,315.105316 619.967163,315.856079 623.105469,318.063416 
	C629.146606,322.312439 634.341797,327.494659 639.079285,333.091644 
	C655.865479,352.923340 671.834717,373.463257 690.697266,391.469849 
	C702.284668,402.531464 714.758484,412.529602 727.168579,422.615326 
	C738.891724,432.142792 743.412170,446.227905 739.400024,460.128174 
	C738.595581,462.915161 736.806641,465.121948 735.241699,468.485474 
	C756.701233,485.110474 780.315918,497.887634 805.723022,507.743073 
	C809.273071,502.963226 810.031738,497.780945 811.583923,492.944977 
	C814.622620,483.478271 820.336182,481.821381 827.853149,488.471466 
	C838.763062,498.123260 846.380493,510.370636 853.407837,522.811584 
	C866.221008,545.495667 873.367554,570.076050 872.963867,596.216492 
	C872.576965,621.274109 865.774048,644.745178 852.179077,666.091858 
	C848.379578,672.057861 844.084961,677.477905 838.819214,682.157776 
	C832.223267,688.019958 825.864624,686.331238 823.337952,677.843445 
	C820.375000,667.890564 815.436890,659.178345 807.959106,651.950317 
	C806.791382,650.821655 805.845032,649.330322 803.744812,649.023560 
	C798.175110,654.476868 793.196960,660.796936 786.418823,665.164490 
	C777.241028,671.078247 767.491760,674.908081 756.316772,673.348633 
	C751.397461,672.662170 749.972168,670.574097 751.335205,665.796326 
	C754.269653,655.510681 756.529175,645.165894 755.810852,634.360474 
	C755.658203,632.064209 755.381042,630.321045 752.830139,629.262024 
	C731.227051,620.293213 711.584045,607.602905 691.073730,596.554688 
	C676.730713,588.828613 662.593079,580.707642 647.632874,573.948242 
	C666.379883,592.805359 680.202393,614.973694 692.169067,638.456543 
	C695.553772,645.098633 695.918640,645.105225 702.817322,642.297607 
	C706.965637,640.609253 710.867859,638.318848 714.890991,636.319702 
	C723.687988,631.948181 729.790894,635.894409 730.439392,645.695129 
	C731.237061,657.748962 728.329407,668.777222 722.848145,679.326538 
	C722.024170,680.912354 720.768616,682.393372 721.234375,685.068420 
	C727.595215,685.487793 734.005188,686.981445 740.633667,686.277039 
	C745.920044,685.715271 751.200378,684.941650 756.502441,684.722351 
	C763.331665,684.439880 765.568420,687.389709 764.033752,694.026489 
	C763.045593,698.299866 760.725647,702.012573 758.860413,705.905457 
	C743.151245,738.692139 718.689148,761.909668 684.043762,773.785034 
	C671.089539,778.225281 657.751526,779.568542 644.181946,777.156189 
	C640.597229,776.518982 636.705994,775.899780 635.655701,771.468323 
	C634.655945,767.250122 637.602844,764.985718 640.482666,762.951355 
	C646.876709,758.434204 653.396362,754.095337 659.822632,749.623169 
	C661.436279,748.500183 663.230530,747.501526 664.151245,745.521667 
	C663.257141,743.563293 661.225098,743.506531 659.614807,742.895813 
	C647.936096,738.466919 637.685486,731.730042 628.311279,723.593506 
	C626.435059,721.965027 624.733032,720.094604 623.166504,718.160950 
	C621.197205,715.730042 620.016724,713.000061 621.615417,709.855835 
	C623.052979,707.028625 625.812805,706.800964 628.458252,706.694214 
	C637.339600,706.335815 645.426819,703.748230 652.744385,698.652344 
	C658.364319,694.738647 658.813171,693.484680 654.437439,688.045349 
	C643.055908,673.897400 631.269104,660.284485 616.475403,649.273560 
	C590.583496,630.002319 562.530029,615.648865 530.870605,609.076477 
	C503.738525,603.444031 476.467010,601.632263 449.518890,610.349121 
	C436.131348,614.679504 424.768646,622.055481 418.015259,634.859680 
	C410.265900,649.552185 412.561066,664.478333 417.958771,679.299988 
	C420.601227,686.556030 424.593994,693.082947 428.834167,699.483643 
	C431.090210,702.889160 434.022064,705.290344 437.652191,707.292908 
	C465.862640,722.855469 496.054199,734.087036 525.208130,747.579346 
	C549.807312,758.963745 573.307617,772.063782 593.599731,790.311340 
	C612.278259,807.107849 626.728699,826.713501 633.993286,851.113770 
	C634.857483,854.016357 635.515503,856.885254 635.430603,859.918091 
	C635.254883,866.188843 630.182983,869.287842 624.743713,866.080322 
	C619.875183,863.209534 615.380554,859.712097 610.640930,856.613464 
	C604.974243,852.908875 599.222412,849.334351 592.888062,846.305237 
	C595.324646,850.759705 597.970276,855.113953 600.162720,859.685486 
	C611.375488,883.065002 617.101929,907.888977 619.231995,933.617676 
	C619.450867,936.261414 619.391602,938.961182 619.136353,941.603577 
	C618.754700,945.555786 616.192505,947.724670 612.570740,948.933655 
	C609.224182,950.050781 607.073486,948.174622 605.244263,945.961060 
	C600.258118,939.927368 595.218384,933.920776 590.559448,927.636963 
	C571.902588,902.473755 547.146057,884.610474 520.533569,869.018616 
	C485.108276,848.263550 447.205231,832.578247 410.026154,815.416199 
	C401.737183,811.590027 393.505096,807.640564 383.866516,803.097168 
	C386.596802,809.363403 388.797791,814.446472 391.027405,819.516968 
	C391.966095,821.651794 393.263306,823.679321 393.864563,825.899902 
	C394.692993,828.959290 395.224854,832.260376 392.299438,834.675842 
	C389.534943,836.958618 386.474854,836.684692 383.371429,835.288452 
	C376.796051,832.330200 371.005768,828.054199 365.052826,824.108704 
	C334.946381,804.154480 307.949646,780.835205 288.214294,750.167236 
	C275.003998,729.639038 266.662506,707.095459 262.661591,682.981323 
	C262.530609,682.191895 262.311523,681.417114 262.128937,680.615295 
	C260.103516,680.560974 259.880157,682.126892 259.431244,683.209473 
	C253.516464,697.472107 250.044174,712.347351 249.465424,727.751282 
	C249.153091,736.064209 248.787170,744.370056 248.359940,752.677307 
	C248.038010,758.936401 243.793442,761.372131 238.083694,758.417542 
	C234.893066,756.766479 233.374542,753.777222 231.988022,750.746765 
	C226.277924,738.266235 223.293854,724.945679 220.107498,711.692810 
	C215.469940,692.403809 212.228378,672.954529 212.639175,653.000671 
	C213.342743,618.826782 222.625351,587.164185 239.975754,557.225464 
	C236.876587,557.311096 234.053955,558.487793 231.302826,559.586121 
	C214.474930,566.304321 200.259781,576.880005 187.542465,589.600464 
	C185.299911,591.843567 183.159653,594.152161 180.310562,595.670349 
	C174.677048,598.672241 171.063690,596.543579 170.649307,590.081726 
	C169.931931,578.895386 172.488083,568.210938 175.959213,557.780090 
	C190.130280,515.195496 215.381317,481.099213 253.734283,457.155945 
	C260.263367,453.079865 267.447845,450.418854 274.962372,447.124817 
	C267.375916,442.296631 259.198120,440.208954 250.999481,438.503845 
	C233.122665,434.786072 215.291153,435.285828 197.679672,440.303589 
	C193.415268,441.518555 189.397308,442.218353 186.643143,437.699158 
	C183.928986,433.245605 185.536621,429.275146 188.639908,425.857330 
	C201.904846,411.247742 217.377792,399.720886 235.504120,391.650665 
	C255.558624,382.722015 276.422058,376.870331 298.087982,373.681305 
	C298.719421,373.588348 299.333374,373.376617 300.664398,373.042114 
	C297.974457,368.245636 294.453644,364.582672 290.937347,360.994263 
	C262.464508,331.937469 228.954559,310.246399 192.110718,293.385834 
	C169.998672,283.266846 147.577347,273.964478 124.452263,266.401459 
	C120.628494,265.150909 116.899384,263.734436 114.827980,259.826813 
	C112.404381,255.254776 113.676956,251.261444 118.405029,249.157532 
	C120.860451,248.064911 123.420464,247.517303 126.159065,247.628448 
	C141.120163,248.235687 156.022232,249.661697 170.814194,251.826797 
	C192.984604,255.071838 215.130768,258.474792 237.010040,263.502991 
	C282.910919,274.051636 327.216736,289.124084 369.786713,309.285858 
	C370.941132,309.832581 372.037750,310.722534 373.884766,310.343292 
	C372.304596,306.121246 368.790100,303.725525 365.835724,301.131958 
	C338.756317,277.359467 313.124969,252.111664 288.672974,225.667877 
	C247.298782,180.923477 212.489944,131.861771 190.112808,74.704430 
	C187.024521,66.816109 187.323502,63.215397 191.036530,60.596867 
	C194.474365,58.172405 200.130844,59.509068 205.186478,64.810638 
	C215.989502,76.139244 226.157181,88.051285 237.077591,99.291428 
	C264.958557,127.988731 293.351440,156.142105 323.931305,181.980545 
	C339.449890,195.092987 355.580933,207.432205 372.169220,219.208817 
	C394.439880,235.019531 416.171844,251.594330 439.640656,265.659882 
	C440.493164,266.170807 441.341644,266.688507 442.541504,266.939423 
	C405.249939,224.649368 370.335632,180.819275 349.820312,127.029938 
M361.377899,380.431274 
	C360.698364,379.753296 359.651642,379.329163 359.755432,378.030334 
	C361.176697,377.227875 362.589325,377.714172 364.008179,378.080017 
	C378.312439,381.768372 392.496643,385.813202 406.287750,391.188843 
	C421.454773,397.100769 435.747253,404.433319 447.312103,416.153290 
	C455.844513,424.800171 455.140625,431.734131 445.458374,438.931488 
	C436.723358,445.424683 426.944672,449.992035 417.166656,454.622437 
	C411.150543,457.471344 404.639160,459.330505 398.597168,463.222321 
	C405.833710,464.467194 411.854919,467.199524 417.663788,470.460968 
	C428.195648,476.374084 436.933594,483.911194 441.652283,495.513184 
	C444.377472,502.213562 443.346283,507.626434 438.312775,512.772949 
	C433.432129,517.763184 427.167358,520.548828 421.476196,524.245605 
	C414.744568,528.618164 407.237091,531.787292 400.690338,537.146851 
	C415.890778,539.754578 430.393951,542.636230 443.701935,551.019409 
	C425.859955,568.662720 405.753998,583.625122 400.697052,610.156494 
	C402.005951,609.760864 402.626160,609.614380 403.216339,609.389038 
	C431.523193,598.586365 460.826263,592.371094 491.100586,591.834229 
	C514.034119,591.427429 536.171631,596.669495 557.921997,603.687256 
	C589.497681,613.875061 617.262695,630.335632 640.782593,653.761475 
	C650.446838,663.387085 659.211304,673.837280 667.721191,684.505493 
	C674.295349,692.747192 674.330750,696.388123 666.925964,703.973938 
	C665.083313,705.861633 662.893372,707.430237 660.767822,709.018005 
	C655.427429,713.007141 648.977051,714.864685 642.434021,717.959534 
	C656.411987,730.708435 673.529114,732.819214 691.396423,735.052673 
	C682.693359,746.555176 672.845947,755.504761 662.102112,764.046204 
	C688.730469,768.372681 744.858521,724.811523 745.536072,699.460388 
	C730.191895,699.479553 714.869995,699.049072 699.877136,692.772949 
	C709.333374,679.588379 717.110107,666.443176 717.299622,649.640869 
	C715.496033,650.474182 714.133911,650.999329 712.871033,651.702637 
	C696.551453,660.791443 685.068970,659.344299 672.098328,646.041687 
	C665.139648,638.904846 658.660645,631.301575 651.929688,623.941223 
	C643.509888,614.734070 634.772705,605.800598 626.667969,596.325256 
	C605.925354,572.074768 580.645691,555.354919 549.324646,548.099976 
	C544.349670,546.947510 539.081238,546.771423 533.503723,544.335693 
	C535.545837,543.491150 536.723145,542.940491 537.942688,542.509521 
	C553.887207,536.876099 570.189575,535.594116 586.998352,537.463379 
	C607.774963,539.773865 627.194519,546.023621 645.544983,555.796143 
	C670.933777,569.317017 695.017883,585.100525 720.430054,598.637085 
	C739.203613,608.637451 758.448303,616.504150 779.061401,621.890076 
	C802.408752,627.990295 821.690613,640.384460 831.826050,663.734436 
	C832.396179,665.047913 832.781128,666.627075 835.265991,667.487122 
	C855.684937,640.481323 863.834595,610.343811 858.692444,576.539490 
	C854.326355,547.836365 842.015503,523.171448 822.273804,501.174896 
	C819.592102,507.942535 818.624695,514.131775 815.190491,519.324951 
	C813.478149,521.914124 811.570251,524.221252 807.863464,522.791626 
	C803.684998,521.180054 799.394836,519.838623 795.282349,518.078064 
	C772.253479,508.219818 750.800598,495.522797 730.151123,481.440155 
	C724.306946,477.454498 718.239258,473.706940 712.670471,468.657288 
	C715.195129,467.045044 717.214233,465.617493 719.357422,464.409973 
	C731.045105,457.824768 730.231323,443.664551 722.394836,435.457794 
	C718.477966,431.355896 714.293762,427.600891 709.665161,424.274963 
	C699.933960,417.282440 690.862854,409.494873 682.109863,401.288605 
	C671.266785,391.122833 662.304688,379.305878 652.402344,368.320190 
	C644.633850,359.701813 637.408875,350.593475 630.052490,341.833862 
	C632.596252,355.253784 637.876648,368.162537 642.551514,382.489624 
	C637.299255,379.441956 635.104004,375.410675 632.066833,372.198029 
	C614.206360,353.305603 595.323608,335.400330 574.877686,319.420380 
	C554.317444,303.351074 533.819885,287.221832 513.502747,270.843658 
	C489.416138,251.426773 465.512543,231.771652 442.907257,210.683838 
	C419.898102,189.219238 398.718750,165.904419 377.938629,142.251816 
	C374.131531,137.918442 370.842804,132.885117 364.904755,129.163651 
	C372.814575,148.662689 382.268250,166.287964 393.369690,182.835342 
	C407.623810,204.082031 423.000916,224.535446 439.799316,243.953140 
	C451.781952,257.804138 463.614471,271.727875 476.624512,284.642151 
	C488.087585,296.020844 499.878754,307.088257 510.554504,319.237366 
	C512.021729,320.907104 514.502136,322.059326 514.568848,324.796265 
	C467.542114,302.093628 425.104980,272.497742 382.912567,242.768799 
	C319.273499,197.928452 260.867737,146.915451 209.126053,88.469589 
	C219.197403,109.672173 230.587753,130.006058 243.848419,149.408798 
	C266.091797,181.954895 291.450806,211.778152 319.436279,239.435318 
	C333.411530,253.246628 347.710236,266.731598 361.629486,280.598236 
	C368.717987,287.659973 376.492676,293.913971 383.965851,300.510681 
	C395.792206,310.949982 408.007690,320.952606 420.160553,331.016815 
	C434.753998,343.102142 449.491882,355.013153 464.074066,367.111938 
	C466.715302,369.303345 469.958405,371.033600 471.806519,374.734436 
	C470.770721,374.582581 470.233765,374.636108 469.838226,374.424866 
	C466.758179,372.779938 463.746643,371.003143 460.637848,369.416138 
	C424.479553,350.957611 388.775299,331.590759 351.580597,315.209717 
	C318.696198,300.727051 285.065582,288.392365 250.284958,279.256897 
	C224.118408,272.384033 197.595123,267.292328 170.823013,263.566528 
	C163.547638,262.554047 156.253265,260.586700 147.271667,261.804810 
	C183.226974,274.545685 216.780029,289.169891 247.605209,309.393158 
	C278.654694,329.763702 305.534576,354.609711 327.845276,384.867798 
	C284.394043,386.515198 243.470779,394.467255 209.618195,423.736572 
	C244.428543,420.379242 276.015228,427.726349 304.707214,449.775085 
	C274.796783,458.897156 248.045029,471.902740 227.351334,494.815552 
	C206.913040,517.445557 191.119125,542.670532 185.658646,573.855469 
	C211.077225,551.276550 249.863968,535.713867 265.590240,541.939758 
	C245.874954,567.798767 233.261032,596.417542 227.955841,628.687012 
	C222.629990,661.082031 226.424713,692.140442 236.326599,722.942017 
	C239.050034,707.809631 242.126892,692.922302 247.983673,678.680115 
	C253.983215,664.090759 262.849396,651.884521 275.830566,641.884766 
	C275.951447,643.259094 276.161102,643.922485 276.039734,644.518494 
	C273.864105,655.199829 273.984161,665.872375 275.192139,676.699951 
	C278.074860,702.538696 287.351044,725.968872 301.587494,747.435547 
	C314.196655,766.448364 330.292297,782.333679 348.173126,796.417297 
	C356.325317,802.838257 364.578705,809.131104 374.672516,814.468994 
	C366.638367,797.227417 357.786438,781.452271 351.171722,764.605957 
	C352.999084,765.083130 354.283936,765.829407 355.473480,766.705200 
	C384.006866,787.712280 415.020660,804.296387 447.240540,818.868225 
	C472.997833,830.517273 498.980164,841.774109 523.351746,856.255249 
	C544.393799,868.757996 564.904602,882.004395 582.481873,899.290833 
	C590.525269,907.201050 597.872437,915.722168 605.008972,924.926697 
	C603.961853,903.343811 598.086731,883.690674 588.562317,864.900085 
	C578.965515,845.966553 563.863770,831.601868 549.507751,816.402832 
	C573.170776,822.931091 595.723816,831.483948 616.731018,844.214966 
	C617.283997,841.988037 616.304504,840.572388 615.694336,839.086304 
	C611.337402,828.475281 604.582947,819.425720 596.959839,811.027405 
	C576.795959,788.812805 551.507874,773.803406 524.838623,761.058960 
	C504.601227,751.388000 483.883972,742.720215 463.364929,733.640564 
	C460.222839,732.250122 456.998322,731.045898 452.761719,729.330322 
	C460.456390,737.165710 468.813599,742.322327 475.596649,749.460571 
	C467.304901,746.884888 459.170410,744.129700 451.448212,740.497742 
	C436.273621,733.360840 423.569000,722.601685 410.666138,712.070374 
	C383.044128,689.525146 370.824158,659.707092 368.723785,625.038452 
	C367.683594,607.868591 372.870728,592.245483 381.947205,577.802979 
	C385.627411,571.947021 389.262756,566.062866 393.326263,559.536621 
	C370.725098,556.342834 350.292389,563.938477 328.664062,568.648438 
	C336.269562,553.591858 347.060913,542.220032 359.067993,532.262146 
	C372.703125,520.954041 389.053619,513.829834 404.759216,505.863495 
	C413.977203,501.187866 414.413361,499.271210 406.285919,492.418213 
	C405.779144,491.990936 405.212646,491.634674 404.675568,491.243134 
	C390.143463,480.649414 373.599121,474.996185 356.209412,471.309906 
	C350.405457,470.079590 344.283447,470.197784 337.587433,467.547272 
	C340.887665,466.309204 343.022339,465.450897 345.194885,464.702545 
	C361.394501,459.122223 377.404388,453.045319 392.974884,445.887390 
	C399.600281,442.841644 406.478638,440.122345 411.861816,434.901062 
	C416.403748,430.495758 416.904297,426.768860 413.242279,421.657867 
	C410.732910,418.155579 407.887421,414.967010 404.519226,412.121338 
	C391.017944,400.714630 375.715118,391.795807 361.377899,380.431274 
z"/>
<path fill="#000000" opacity="1.000000" stroke="none" 
	d="
M575.298218,455.185455 
	C574.192322,448.983643 574.085388,443.055511 575.021179,437.387543 
	C575.698120,433.287262 574.438904,430.779053 572.027832,428.050781 
	C566.100403,421.343506 558.322937,417.703918 550.224060,414.538696 
	C548.245544,413.765442 546.082092,413.359619 543.799194,411.218048 
	C548.817139,410.181305 553.391846,410.226410 557.747437,410.852142 
	C580.029724,414.053131 600.337219,422.114868 617.931702,436.416718 
	C625.164124,442.295654 632.254028,448.395660 638.433472,455.364410 
	C648.017090,466.172150 660.219666,472.615295 673.416565,477.611450 
	C674.502991,478.022766 675.607788,478.385925 676.689941,478.807739 
	C676.986572,478.923401 677.231812,479.170837 677.498413,479.361053 
	C670.698425,486.862976 664.673584,488.176636 656.915588,485.834930 
	C652.133118,484.391418 647.495544,482.509918 643.165955,480.047974 
	C637.070801,476.582062 631.011841,476.394226 625.307007,480.343964 
	C605.360046,494.154083 578.455261,475.443481 575.298218,455.185455 
z"/>
<path fill="#000000" opacity="1.000000" stroke="none" 
	d="
M820.008789,594.991577 
	C813.770203,587.855347 806.288757,582.962891 798.367981,578.633057 
	C789.223145,573.634094 784.914490,565.816650 784.596191,555.454773 
	C784.466125,551.219543 786.347229,549.958130 789.974854,550.827820 
	C803.487244,554.067139 814.637207,560.741028 821.200806,573.500305 
	C826.997986,584.769958 830.180298,596.982849 833.338623,609.388977 
	C828.652893,604.917786 825.166870,599.401367 820.008789,594.991577 
z"/>
</svg>